<?xml version="1.0" standalone="no"?>
<!DOCTYPE svg PUBLIC "-//W3C//DTD SVG 20010904//EN"
 "http://www.w3.org/TR/2001/REC-SVG-20010904/DTD/svg10.dtd">
<svg version="1.0" xmlns="http://www.w3.org/2000/svg"
 width="100.000000pt" height="100.000000pt" viewBox="0 0 100.000000 100.000000"
 preserveAspectRatio="xMidYMid meet">
<metadata>
Created by potrace 1.14, written by Peter Selinger 2001-2017
</metadata>
<g transform="translate(0.000000,100.000000) scale(0.100000,-0.100000)"
fill="#000000" stroke="none">
<path d="M408 952 c-174 -63 -276 -256 -226 -426 16 -51 89 -126 178 -181 36
-22 75 -55 87 -74 13 -19 23 -32 24 -30 0 2 2 13 4 24 10 50 -14 94 -80 142
-35 27 -70 59 -77 72 -17 32 -17 154 1 175 15 18 91 22 122 6 13 -8 19 -7 19
0 0 14 -67 43 -80 35 -6 -4 -10 -2 -10 4 0 6 17 19 38 30 20 10 51 32 68 48
28 28 32 29 45 13 19 -22 105 -80 119 -80 6 0 8 -5 5 -10 -4 -6 -10 -8 -15 -5
-13 8 -80 -22 -80 -35 0 -7 6 -8 19 0 11 5 42 10 69 10 42 0 50 -3 60 -24 14
-31 9 -145 -8 -172 -7 -11 -40 -40 -73 -64 -62 -46 -90 -91 -84 -135 3 -25 17
-47 17 -27 0 23 55 74 119 112 75 43 135 104 158 158 16 39 20 117 8 172 -21
99 -110 209 -204 252 -60 27 -162 32 -223 10z m78 -54 c4 -7 4 -10 0 -6 -4 3
-21 2 -39 -3 -17 -5 -27 -5 -21 0 5 5 18 11 29 14 11 3 21 5 22 6 1 0 5 -5 9
-11z m39 -6 c-3 -3 -11 0 -18 7 -9 10 -8 11 6 5 10 -3 15 -9 12 -12z m60 -2
c3 -6 -1 -7 -9 -4 -18 7 -21 14 -7 14 6 0 13 -4 16 -10z"/>
<path d="M661 638 c-1 -20 -26 -30 -93 -37 -5 -1 -8 -5 -8 -9 0 -16 90 -5 110
13 20 18 28 41 11 31 -5 -4 -12 0 -14 6 -4 8 -6 7 -6 -4z"/>
<path d="M320 632 c0 -20 40 -42 83 -46 57 -6 63 10 7 19 -22 4 -46 12 -53 18
-16 15 -37 20 -37 9z"/>
<path d="M105 473 c1 -76 6 -150 13 -165 18 -44 74 -91 162 -136 96 -50 112
-61 151 -115 l28 -38 12 43 c16 59 13 94 -16 153 -19 39 -37 59 -80 85 -30 19
-79 50 -108 68 -64 41 -98 87 -128 175 -13 37 -27 67 -30 67 -3 0 -5 -62 -4
-137z"/>
<path d="M887 581 c-10 -47 -56 -136 -89 -170 -17 -18 -63 -51 -102 -73 -89
-51 -124 -82 -147 -133 -21 -46 -24 -93 -8 -150 10 -36 13 -38 23 -21 29 51
81 94 152 130 170 84 192 120 192 314 0 125 -9 167 -21 103z"/>
<path d="M460 484 c0 -10 33 -33 48 -34 16 0 47 29 39 36 -3 3 -14 1 -24 -4
-12 -7 -25 -7 -34 -1 -17 10 -29 12 -29 3z"/>
<path d="M444 429 c-4 -6 44 -32 61 -33 6 0 24 7 40 16 33 19 35 18 -53 21
-24 2 -45 0 -48 -4z"/>
</g>
</svg>
